<svg xmlns="http://www.w3.org/2000/svg" xmlns:xlink="http://www.w3.org/1999/xlink" version="1.1" width="256" height="256" viewBox="0 0 256 256" xml:space="preserve">

<defs>
</defs>
<g style="stroke: none; stroke-width: 0; stroke-dasharray: none; stroke-linecap: butt; stroke-linejoin: miter; stroke-miterlimit: 10; fill: none; fill-rule: nonzero; opacity: 1;" transform="translate(1.4065934065934016 1.4065934065934016) scale(2.81 2.81)" >
	<path d="M 83.974 81.973 H 6.026 C 3.25 81.973 1 79.723 1 76.947 v -0.909 h 88 v 0.909 C 89 79.723 86.75 81.973 83.974 81.973 z" style="stroke: none; stroke-width: 1; stroke-dasharray: none; stroke-linecap: butt; stroke-linejoin: miter; stroke-miterlimit: 10; fill: rgb(238,240,245); fill-rule: nonzero; opacity: 1;" transform=" matrix(1 0 0 1 0 0) " stroke-linecap="round" />
	<path d="M 79.004 24.617 c 2.936 0 5.317 2.381 5.317 5.317 v 46.104 H 5.679 V 29.934 c 0 -2.936 2.381 -5.317 5.317 -5.317 H 79.004 z" style="stroke: none; stroke-width: 1; stroke-dasharray: none; stroke-linecap: butt; stroke-linejoin: miter; stroke-miterlimit: 10; fill: rgb(238,240,245); fill-rule: nonzero; opacity: 1;" transform=" matrix(1 0 0 1 0 0) " stroke-linecap="round" />
	<path d="M 78.888 70.038 V 32.26 c 0 -1.019 -0.826 -1.846 -1.846 -1.846 H 52.068 H 37.932 H 12.958 c -1.02 0 -1.846 0.826 -1.846 1.846 v 37.778 v 6 h 67.776 V 70.038 z" style="stroke: none; stroke-width: 1; stroke-dasharray: none; stroke-linecap: butt; stroke-linejoin: miter; stroke-miterlimit: 10; fill: rgb(179,218,254); fill-rule: nonzero; opacity: 1;" transform=" matrix(1 0 0 1 0 0) " stroke-linecap="round" />
	<rect x="40.16" y="76.04" rx="0" ry="0" width="9.67" height="5.93" style="stroke: none; stroke-width: 1; stroke-dasharray: none; stroke-linecap: butt; stroke-linejoin: miter; stroke-miterlimit: 10; fill: rgb(215,216,219); fill-rule: nonzero; opacity: 1;" transform=" matrix(1 0 0 1 0 0) "/>
	<path d="M 22.263 40.689 V 11.468 c 0 -1.922 1.558 -3.481 3.481 -3.481 h 24.851 c 1.222 0 2.394 0.486 3.257 1.35 l 12.753 12.76 c 0.863 0.864 1.348 2.034 1.348 3.255 v 38.069 c 0 1.922 -1.558 3.481 -3.481 3.481 H 25.743 c -1.922 0 -3.481 -1.558 -3.481 -3.481 V 40.689" style="stroke: none; stroke-width: 1; stroke-dasharray: none; stroke-linecap: butt; stroke-linejoin: miter; stroke-miterlimit: 10; fill: rgb(249,208,112); fill-rule: nonzero; opacity: 1;" transform=" matrix(1 0 0 1 0 0) " stroke-linecap="round" />
	<path d="M 64.556 21.062 H 58.75 c -2.139 0 -3.873 -1.734 -3.873 -3.873 V 10.96 L 64.556 21.062 z" style="stroke: none; stroke-width: 1; stroke-dasharray: none; stroke-linecap: butt; stroke-linejoin: miter; stroke-miterlimit: 10; fill: rgb(238,240,245); fill-rule: nonzero; opacity: 1;" transform=" matrix(1 0 0 1 0 0) " stroke-linecap="round" />
	<path d="M 85.321 77.078 H 4.679 V 29.974 c 0 -3.483 2.834 -6.317 6.317 -6.317 l 5.259 -0.04 c 0.002 0 0.005 0 0.007 0 c 0.549 0 0.996 0.443 1 0.993 c 0.004 0.552 -0.44 1.003 -0.993 1.007 l -5.267 0.04 c -2.388 0 -4.325 1.937 -4.325 4.317 v 45.104 h 76.643 V 29.974 c 0 -2.38 -1.937 -4.317 -4.317 -4.317 h -5.052 c -0.553 0 -1 -0.448 -1 -1 s 0.447 -1 1 -1 h 5.052 c 3.483 0 6.317 2.834 6.317 6.317 V 77.078 z" style="stroke: none; stroke-width: 1; stroke-dasharray: none; stroke-linecap: butt; stroke-linejoin: miter; stroke-miterlimit: 10; fill: rgb(7,42,56); fill-rule: nonzero; opacity: 1;" transform=" matrix(1 0 0 1 0 0) " stroke-linecap="round" />
	<path d="M 83.974 83.013 H 6.026 C 2.703 83.013 0 80.31 0 76.986 v -0.908 c 0 -0.553 0.448 -1 1 -1 h 88 c 0.553 0 1 0.447 1 1 v 0.908 C 90 80.31 87.297 83.013 83.974 83.013 z M 2.001 77.078 c 0.049 2.178 1.835 3.935 4.025 3.935 h 77.948 c 2.189 0 3.977 -1.757 4.025 -3.935 H 2.001 z" style="stroke: none; stroke-width: 1; stroke-dasharray: none; stroke-linecap: butt; stroke-linejoin: miter; stroke-miterlimit: 10; fill: rgb(7,42,56); fill-rule: nonzero; opacity: 1;" transform=" matrix(1 0 0 1 0 0) " stroke-linecap="round" />
	<path d="M 50.836 83.013 H 39.164 v -7.935 h 11.672 V 83.013 z M 41.164 81.013 h 7.672 v -3.935 h -7.672 V 81.013 z" style="stroke: none; stroke-width: 1; stroke-dasharray: none; stroke-linecap: butt; stroke-linejoin: miter; stroke-miterlimit: 10; fill: rgb(7,42,56); fill-rule: nonzero; opacity: 1;" transform=" matrix(1 0 0 1 0 0) " stroke-linecap="round" />
	<path d="M 78.888 71.078 c -0.553 0 -1 -0.447 -1 -1 V 32.3 c 0 -0.467 -0.379 -0.846 -0.846 -0.846 h -3.09 c -0.553 0 -1 -0.448 -1 -1 s 0.447 -1 1 -1 h 3.09 c 1.569 0 2.846 1.277 2.846 2.846 v 37.778 C 79.888 70.631 79.44 71.078 78.888 71.078 z" style="stroke: none; stroke-width: 1; stroke-dasharray: none; stroke-linecap: butt; stroke-linejoin: miter; stroke-miterlimit: 10; fill: rgb(7,42,56); fill-rule: nonzero; opacity: 1;" transform=" matrix(1 0 0 1 0 0) " stroke-linecap="round" />
	<path d="M 11.112 71.078 c -0.552 0 -1 -0.447 -1 -1 V 32.3 c 0 -1.569 1.277 -2.846 2.846 -2.846 h 3.305 c 0.552 0 1 0.448 1 1 s -0.448 1 -1 1 h -3.305 c -0.467 0 -0.846 0.379 -0.846 0.846 v 37.778 C 12.112 70.631 11.664 71.078 11.112 71.078 z" style="stroke: none; stroke-width: 1; stroke-dasharray: none; stroke-linecap: butt; stroke-linejoin: miter; stroke-miterlimit: 10; fill: rgb(7,42,56); fill-rule: nonzero; opacity: 1;" transform=" matrix(1 0 0 1 0 0) " stroke-linecap="round" />
	<path d="M 63.899 22.062 H 58.75 c -2.687 0 -4.873 -2.186 -4.873 -4.874 V 12.04 h 2 v 5.149 c 0 1.584 1.289 2.874 2.873 2.874 h 5.149 V 22.062 z" style="stroke: none; stroke-width: 1; stroke-dasharray: none; stroke-linecap: butt; stroke-linejoin: miter; stroke-miterlimit: 10; fill: rgb(7,42,56); fill-rule: nonzero; opacity: 1;" transform=" matrix(1 0 0 1 0 0) " stroke-linecap="round" />
	<path d="M 55.877 12.04 h -2 c 0 -1.683 -1.369 -3.052 -3.052 -3.052 v -2 C 53.61 6.987 55.877 9.254 55.877 12.04 z" style="stroke: none; stroke-width: 1; stroke-dasharray: none; stroke-linecap: butt; stroke-linejoin: miter; stroke-miterlimit: 10; fill: rgb(7,42,56); fill-rule: nonzero; opacity: 1;" transform=" matrix(1 0 0 1 0 0) " stroke-linecap="round" />
	<path d="M 68.952 25.114 h -2 c 0 -1.683 -1.369 -3.052 -3.053 -3.052 v -2 C 66.686 20.062 68.952 22.329 68.952 25.114 z" style="stroke: none; stroke-width: 1; stroke-dasharray: none; stroke-linecap: butt; stroke-linejoin: miter; stroke-miterlimit: 10; fill: rgb(7,42,56); fill-rule: nonzero; opacity: 1;" transform=" matrix(1 0 0 1 0 0) " stroke-linecap="round" />
	<path d="M 64.471 67.902 H 25.743 c -2.471 0 -4.48 -2.01 -4.48 -4.48 V 40.689 h 2 v 22.732 c 0 1.368 1.113 2.48 2.48 2.48 h 38.728 c 1.368 0 2.481 -1.112 2.481 -2.48 V 24.849 h 2 v 38.573 C 68.952 65.893 66.941 67.902 64.471 67.902 z" style="stroke: none; stroke-width: 1; stroke-dasharray: none; stroke-linecap: butt; stroke-linejoin: miter; stroke-miterlimit: 10; fill: rgb(7,42,56); fill-rule: nonzero; opacity: 1;" transform=" matrix(1 0 0 1 0 0) " stroke-linecap="round" />
	<path d="M 23.263 40.689 h -2 V 11.468 c 0 -2.471 2.01 -4.48 4.48 -4.48 h 25.348 v 2 H 25.743 c -1.368 0 -2.48 1.113 -2.48 2.48 V 40.689 z" style="stroke: none; stroke-width: 1; stroke-dasharray: none; stroke-linecap: butt; stroke-linejoin: miter; stroke-miterlimit: 10; fill: rgb(7,42,56); fill-rule: nonzero; opacity: 1;" transform=" matrix(1 0 0 1 0 0) " stroke-linecap="round" />
	<path d="M 58.479 53.281 H 31.521 c -0.552 0 -1 -0.447 -1 -1 s 0.448 -1 1 -1 h 26.959 c 0.553 0 1 0.447 1 1 S 59.032 53.281 58.479 53.281 z" style="stroke: none; stroke-width: 1; stroke-dasharray: none; stroke-linecap: butt; stroke-linejoin: miter; stroke-miterlimit: 10; fill: rgb(7,42,56); fill-rule: nonzero; opacity: 1;" transform=" matrix(1 0 0 1 0 0) " stroke-linecap="round" />
	<path d="M 58.479 59.307 H 31.521 c -0.552 0 -1 -0.447 -1 -1 s 0.448 -1 1 -1 h 26.959 c 0.553 0 1 0.447 1 1 S 59.032 59.307 58.479 59.307 z" style="stroke: none; stroke-width: 1; stroke-dasharray: none; stroke-linecap: butt; stroke-linejoin: miter; stroke-miterlimit: 10; fill: rgb(7,42,56); fill-rule: nonzero; opacity: 1;" transform=" matrix(1 0 0 1 0 0) " stroke-linecap="round" />
	<rect x="59.17" y="6.47" rx="0" ry="0" width="2" height="18.38" style="stroke: none; stroke-width: 1; stroke-dasharray: none; stroke-linecap: butt; stroke-linejoin: miter; stroke-miterlimit: 10; fill: rgb(7,42,56); fill-rule: nonzero; opacity: 1;" transform=" matrix(0.7073 -0.7069 0.7069 0.7073 6.5416 47.1159) "/>
	<path d="M 42.081 45.739 c -0.552 0 -1 -0.448 -1 -1 V 31.91 c 0 -2.24 -1.822 -4.062 -4.062 -4.062 s -4.062 1.822 -4.062 4.062 v 12.829 c 0 0.552 -0.448 1 -1 1 s -1 -0.448 -1 -1 V 31.91 c 0 -3.342 2.719 -6.062 6.062 -6.062 s 6.062 2.719 6.062 6.062 v 12.829 C 43.081 45.291 42.633 45.739 42.081 45.739 z" style="stroke: none; stroke-width: 1; stroke-dasharray: none; stroke-linecap: butt; stroke-linejoin: miter; stroke-miterlimit: 10; fill: rgb(7,42,56); fill-rule: nonzero; opacity: 1;" transform=" matrix(1 0 0 1 0 0) " stroke-linecap="round" />
	<path d="M 42.081 37.991 H 31.958 c -0.552 0 -1 -0.448 -1 -1 s 0.448 -1 1 -1 h 10.123 c 0.552 0 1 0.448 1 1 S 42.633 37.991 42.081 37.991 z" style="stroke: none; stroke-width: 1; stroke-dasharray: none; stroke-linecap: butt; stroke-linejoin: miter; stroke-miterlimit: 10; fill: rgb(7,42,56); fill-rule: nonzero; opacity: 1;" transform=" matrix(1 0 0 1 0 0) " stroke-linecap="round" />
	<path d="M 58.042 37.991 H 47.919 c -0.553 0 -1 -0.448 -1 -1 s 0.447 -1 1 -1 h 10.123 c 0.553 0 1 0.448 1 1 S 58.595 37.991 58.042 37.991 z" style="stroke: none; stroke-width: 1; stroke-dasharray: none; stroke-linecap: butt; stroke-linejoin: miter; stroke-miterlimit: 10; fill: rgb(7,42,56); fill-rule: nonzero; opacity: 1;" transform=" matrix(1 0 0 1 0 0) " stroke-linecap="round" />
	<path d="M 52.98 43.052 c -0.553 0 -1 -0.448 -1 -1 V 31.929 c 0 -0.552 0.447 -1 1 -1 s 1 0.448 1 1 v 10.123 C 53.98 42.604 53.533 43.052 52.98 43.052 z" style="stroke: none; stroke-width: 1; stroke-dasharray: none; stroke-linecap: butt; stroke-linejoin: miter; stroke-miterlimit: 10; fill: rgb(7,42,56); fill-rule: nonzero; opacity: 1;" transform=" matrix(1 0 0 1 0 0) " stroke-linecap="round" />
</g>
</svg>